<?xml version="1.0" encoding="UTF-8"?>
<svg xmlns="http://www.w3.org/2000/svg" xmlns:xlink="http://www.w3.org/1999/xlink" version="1.1" viewBox="0 0 512 512">
  <defs>
    <style>
      .cls-1 {
        font-size: 199.9px;
      }

      .cls-1, .cls-2 {
        display: none;
        fill: #8e64c5;
      }

      .cls-1, .cls-2, .cls-3 {
        font-family: Shrikhand-Regular, Shrikhand;
      }

      .cls-2 {
        font-size: 288.9px;
      }

      .cls-4 {
        fill: url(#linear-gradient);
      }

      .cls-3 {
        fill: #ad6eff;
        font-size: 202.8px;
      }
    </style>
    <linearGradient id="linear-gradient" x1="120.5" y1="290.5" x2="381.8" y2="290.5" gradientUnits="userSpaceOnUse">
      <stop offset="0" stop-color="#2aff7f"/>
      <stop offset=".2" stop-color="#36d88b"/>
      <stop offset=".6" stop-color="#5575ac"/>
      <stop offset="1" stop-color="#7a00d4"/>
    </linearGradient>
  </defs>
  <!-- Generator: Adobe Illustrator 28.6.0, SVG Export Plug-In . SVG Version: 1.2.0 Build 709)  -->
  <g>
    <g id="Layer_1">
      <rect x="0" y="107.3" width="512" height="310" rx="44.2" ry="44.2"/>
      <text class="cls-1" transform="translate(148.3 291.8)"><tspan x="0" y="0">m</tspan></text>
      <text class="cls-2" transform="translate(61.9 353.1) scale(1.2 1)"><tspan x="0" y="0">M</tspan></text>
      <g>
        <path class="cls-4" d="M397.3,197.5c1.9.9,2.9,2.1,2.9,3.8s-.2,1.6-.7,2.6c-.5,1.2-1.2,2.1-2.1,2.7-.9.6-2.3,1.4-4.1,2.3-2.7,1.2-4.8,2.6-6.4,4.1-1.6,1.5-3,3.8-4.1,6.9l-30.4,87.2c-.7,1.8-1,3.4-1,5.1s.3,2.7.9,3.8c.6,1,1.4,2.2,2.4,3.5.7.7,1.2,1.4,1.7,2.1.5.7.7,1.5.7,2.3s-.2.9-.5,2c-.7,1.8-2.2,3-4.6,3.9-2.4.8-5.9,1.2-10.3,1.2h-58.6c-3.5,0-6.2-.5-8.1-1.4-1.9-.9-2.9-2.2-2.9-3.9s.2-1.7.7-2.6c.5-.9,1.2-1.8,2.1-2.5.9-.7,1.7-1.3,2.5-1.6.7-.3,1.3-.6,1.6-.9,2.7-1.2,4.8-2.6,6.5-4.1,1.7-1.5,3.1-3.8,4.2-6.9l18.9-54.8-64.6,65.1c-5.3,5.3-9.6,8.9-12.8,10.9-3.2,2-6.9,2.9-11.1,2.9s-7.1-1-9.3-3.1c-2.2-2.1-4.3-5.6-6.1-10.6l-23.4-62.7-18.4,52.5c-.7,1.8-1,3.4-1,5.1s.3,3,.9,4.1c.6,1.1,1.5,2.2,2.6,3.4,1.5,1.8,2.2,3.2,2.2,4.3s-.2.9-.5,2c-.7,1.9-2.2,3.2-4.5,4-2.3.7-5.8,1.1-10.5,1.1h-20.7c-3.5,0-6.2-.5-8.1-1.4-1.9-.9-2.9-2.2-2.9-3.9s.2-1.7.7-2.6c.7-1.5,1.7-2.6,3.2-3.4s2.4-1.3,2.7-1.4c2.7-1.3,4.8-2.7,6.5-4.2,1.7-1.4,3.1-3.8,4.2-7l30.4-87.6-4-10.8c-.8-2-1.2-4-1.2-5.9s1-4.2,2.9-5.3c1.9-1.1,4.9-1.6,8.8-1.6h38.6c5,0,8.7.9,11.1,2.6,2.4,1.8,4.4,4.8,5.9,9.1l24.9,67.3,67.6-68.4c4.3-4.3,8.6-7.2,12.7-8.6,4.2-1.4,9.6-2.1,16.5-2.1h37.1c3.5,0,6.2.4,8.1,1.3Z"/>
        <text class="cls-3" transform="translate(121.5 331.3) scale(1.2 1)"><tspan x="0" y="0">M</tspan></text>
      </g>
    </g>
  </g>
</svg>